<?xml version="1.0" encoding="UTF-8"?>
<svg xmlns="http://www.w3.org/2000/svg" version="1.1" width="300" height="300" viewBox="0 0 300 300"><rect x="0" y="0" width="300" height="300" fill="#ffffff"/><g transform="scale(10.345)"><g transform="translate(0,0)"><path fill-rule="evenodd" d="M9 0L9 1L8 1L8 2L9 2L9 3L8 3L8 4L10 4L10 7L11 7L11 8L6 8L6 9L5 9L5 8L0 8L0 10L1 10L1 11L0 11L0 12L2 12L2 10L4 10L4 11L3 11L3 12L4 12L4 14L5 14L5 13L7 13L7 12L8 12L8 13L9 13L9 14L6 14L6 15L9 15L9 17L8 17L8 16L5 16L5 15L4 15L4 16L5 16L5 17L7 17L7 18L4 18L4 19L2 19L2 21L3 21L3 20L4 20L4 21L8 21L8 23L10 23L10 24L11 24L11 22L12 22L12 21L13 21L13 22L14 22L14 21L15 21L15 20L16 20L16 22L15 22L15 23L18 23L18 24L17 24L17 25L16 25L16 26L15 26L15 25L14 25L14 24L13 24L13 23L12 23L12 25L10 25L10 26L9 26L9 24L8 24L8 29L9 29L9 27L11 27L11 28L12 28L12 29L16 29L16 28L12 28L12 27L14 27L14 26L15 26L15 27L17 27L17 26L18 26L18 27L19 27L19 28L22 28L22 29L23 29L23 28L26 28L26 29L27 29L27 28L28 28L28 26L29 26L29 25L28 25L28 24L26 24L26 23L27 23L27 20L25 20L25 19L27 19L27 18L28 18L28 17L29 17L29 16L27 16L27 18L25 18L25 17L26 17L26 15L27 15L27 14L28 14L28 13L27 13L27 12L29 12L29 11L27 11L27 12L25 12L25 11L26 11L26 10L28 10L28 8L27 8L27 9L26 9L26 8L25 8L25 9L24 9L24 8L23 8L23 9L22 9L22 8L20 8L20 7L21 7L21 6L20 6L20 7L19 7L19 4L18 4L18 7L19 7L19 8L16 8L16 7L17 7L17 6L16 6L16 5L15 5L15 4L17 4L17 3L16 3L16 2L17 2L17 1L15 1L15 0L14 0L14 1L11 1L11 2L10 2L10 0ZM20 0L20 2L19 2L19 1L18 1L18 3L20 3L20 5L21 5L21 0ZM14 1L14 2L12 2L12 3L14 3L14 4L13 4L13 5L12 5L12 4L11 4L11 3L10 3L10 4L11 4L11 7L12 7L12 6L13 6L13 8L12 8L12 9L13 9L13 10L11 10L11 9L10 9L10 11L11 11L11 12L10 12L10 13L12 13L12 14L11 14L11 15L13 15L13 16L10 16L10 17L9 17L9 18L8 18L8 19L6 19L6 20L13 20L13 21L14 21L14 19L15 19L15 18L17 18L17 16L18 16L18 14L19 14L19 15L20 15L20 16L21 16L21 17L20 17L20 18L19 18L19 17L18 17L18 18L19 18L19 19L20 19L20 20L18 20L18 19L16 19L16 20L17 20L17 22L19 22L19 21L20 21L20 20L23 20L23 19L25 19L25 18L23 18L23 17L25 17L25 15L26 15L26 13L25 13L25 12L22 12L22 13L21 13L21 14L22 14L22 16L21 16L21 15L20 15L20 11L21 11L21 10L22 10L22 11L23 11L23 10L24 10L24 9L23 9L23 10L22 10L22 9L20 9L20 10L19 10L19 9L18 9L18 10L19 10L19 11L17 11L17 9L15 9L15 8L14 8L14 6L15 6L15 7L16 7L16 6L15 6L15 5L14 5L14 4L15 4L15 1ZM8 5L8 7L9 7L9 5ZM13 5L13 6L14 6L14 5ZM13 8L13 9L14 9L14 11L15 11L15 13L14 13L14 12L12 12L12 13L14 13L14 16L13 16L13 18L12 18L12 17L11 17L11 18L12 18L12 19L14 19L14 18L15 18L15 17L16 17L16 16L17 16L17 14L15 14L15 13L17 13L17 11L16 11L16 10L15 10L15 9L14 9L14 8ZM6 9L6 10L7 10L7 9ZM8 9L8 12L9 12L9 9ZM25 9L25 10L26 10L26 9ZM4 11L4 12L7 12L7 11ZM0 13L0 14L1 14L1 16L0 16L0 21L1 21L1 16L2 16L2 17L3 17L3 16L2 16L2 14L3 14L3 13ZM22 13L22 14L23 14L23 16L24 16L24 14L25 14L25 13L24 13L24 14L23 14L23 13ZM14 16L14 17L15 17L15 16ZM20 18L20 19L23 19L23 18ZM4 19L4 20L5 20L5 19ZM28 19L28 20L29 20L29 19ZM9 21L9 22L10 22L10 21ZM21 21L21 24L24 24L24 21ZM25 21L25 23L26 23L26 21ZM22 22L22 23L23 23L23 22ZM18 24L18 25L20 25L20 24ZM12 25L12 26L11 26L11 27L12 27L12 26L13 26L13 25ZM22 25L22 26L19 26L19 27L22 27L22 28L23 28L23 27L22 27L22 26L23 26L23 25ZM24 25L24 26L25 26L25 27L26 27L26 28L27 28L27 27L26 27L26 26L28 26L28 25L26 25L26 26L25 26L25 25ZM17 28L17 29L18 29L18 28ZM0 0L0 7L7 7L7 0ZM1 1L1 6L6 6L6 1ZM2 2L2 5L5 5L5 2ZM22 0L22 7L29 7L29 0ZM23 1L23 6L28 6L28 1ZM24 2L24 5L27 5L27 2ZM0 22L0 29L7 29L7 22ZM1 23L1 28L6 28L6 23ZM2 24L2 27L5 27L5 24Z" fill="#000000"/></g></g></svg>
